<svg width="24" height="24" viewBox="0 0 24 24" fill="none" xmlns="http://www.w3.org/2000/svg">
<path d="M13.3 21.4H9.30001C9.00001 21.4 8.70001 21.2 8.60001 20.9L6.60001 14.1C4.60001 13.1 3.20001 11 3.20001 8.69998C3.20001 5.29998 5.90001 2.59998 9.30001 2.59998C12.1 2.59998 19.9 5.19998 20.2 5.29998C20.5 5.39998 20.7 5.69998 20.7 5.99998V11.3C20.7 11.6 20.5 11.9 20.2 12C19.9 12.1 12.1 14.7 9.30001 14.7C9.00001 14.7 8.60001 14.7 8.30001 14.6L9.90001 19.8H12.3L11.3 16.8C11.2 16.4 11.4 16 11.8 15.9C12.2 15.8 12.6 16 12.7 16.4L14 20.4C14.1 20.6 14 20.9 13.9 21.1C13.8 21.3 13.6 21.4 13.3 21.4ZM9.30001 4.09998C6.80001 4.09998 4.70001 6.19998 4.70001 8.69998C4.70001 11.2 6.80001 13.3 9.30001 13.3C11.2 13.3 16.7 11.7 19.2 10.8V6.49998C16.7 5.69998 11.3 4.09998 9.30001 4.09998ZM9.30001 11.4C7.80001 11.4 6.60001 10.2 6.60001 8.69998C6.60001 7.19998 7.80001 5.99998 9.30001 5.99998C10.8 5.99998 12 7.19998 12 8.69998C12 10.2 10.8 11.4 9.30001 11.4ZM9.30001 7.39998C8.70001 7.39998 8.10001 7.99998 8.10001 8.69998C8.10001 9.39998 8.70001 9.89998 9.30001 9.89998C9.90001 9.89998 10.5 9.29998 10.5 8.69998C10.5 8.09998 10 7.39998 9.30001 7.39998Z" fill="url(#paint0_linear_30_313)"/>
<defs>
<linearGradient id="paint0_linear_30_313" x1="25.7156" y1="21.4" x2="25.7156" y2="2.59998" gradientUnits="userSpaceOnUse">
<stop stop-color="#FC8507"/>
<stop offset="1" stop-color="#FFA218"/>
</linearGradient>
</defs>
</svg>
