<svg width="24" height="24" viewBox="0 0 24 24" fill="none" xmlns="http://www.w3.org/2000/svg">
<path fill-rule="evenodd" clip-rule="evenodd" d="M7.80359 4C6.95901 4 6.16755 4.40031 5.68322 5.07243L3.16189 8.57143H1.64706C0.737412 8.57143 0 9.28778 0 10.1714V10.5206C0 11.1267 0.352474 11.6807 0.910472 11.9517L1.88235 12.4238V17.4857C1.88235 18.8743 3.04114 20 4.47059 20H4.94118C6.1259 20 7.12473 19.2268 7.43199 18.1714H17.0386C17.3459 19.2268 18.3447 20 19.5294 20H20C21.4294 20 22.5882 18.8743 22.5882 17.4857V12.367L23.2666 11.9277C23.7248 11.6309 24 11.1314 24 10.5964V10.1714C24 9.28778 23.2626 8.57143 22.3529 8.57143H20.8381L18.3168 5.07243C17.8324 4.40031 17.041 4 16.1964 4H7.80359ZM19.5294 18.6286C18.8797 18.6286 18.3529 18.1169 18.3529 17.4857H19.0588C19.3187 17.4857 19.5294 17.2811 19.5294 17.0286C19.5294 16.7761 19.3187 16.5714 19.0588 16.5714H4.94118C4.68127 16.5714 4.47059 16.7761 4.47059 17.0286C4.47059 17.2811 4.68127 17.4857 4.94118 17.4857H6.11765C6.11765 18.1169 5.59092 18.6286 4.94118 18.6286H4.47059C3.82084 18.6286 3.29412 18.1169 3.29412 17.4857V12.2825C3.29412 11.8496 3.04235 11.4539 2.64378 11.2603L1.54183 10.7251C1.46212 10.6864 1.41176 10.6072 1.41176 10.5206V10.1714C1.41176 10.0452 1.51711 9.94286 1.64706 9.94286H3.2844C3.6683 9.94286 4.02805 9.76091 4.2482 9.45539L6.83979 5.8589C7.05994 5.55338 7.41969 5.37143 7.80359 5.37143H16.1964C16.5803 5.37143 16.9401 5.55338 17.1602 5.8589L19.7518 9.45539C19.972 9.76091 20.3317 9.94286 20.7156 9.94286H22.3529C22.4829 9.94286 22.5882 10.0452 22.5882 10.1714V10.5964C22.5882 10.6728 22.5489 10.7442 22.4835 10.7866L21.7004 11.2937C21.3731 11.5057 21.1765 11.8625 21.1765 12.2446V17.4857C21.1765 18.1169 20.6497 18.6286 20 18.6286H19.5294ZM7.08253 7.54902C7.37578 7.0505 7.92152 6.74286 8.51257 6.74286H15.4874C16.0785 6.74286 16.6242 7.0505 16.9175 7.54902L18.2599 9.83122L19 11H17.6471H6.35294H5L5.74006 9.83122L7.08253 7.54902ZM8.51257 8.11429C8.42814 8.11429 8.35017 8.15823 8.30828 8.22946L7.5693 9.48571H16.4307L15.6917 8.22946C15.6498 8.15823 15.5719 8.11429 15.4874 8.11429H8.51257ZM6.82353 14.7429C7.60323 14.7429 8.23529 14.1288 8.23529 13.3714C8.23529 12.614 7.60323 12 6.82353 12C6.04383 12 5.41176 12.614 5.41176 13.3714C5.41176 14.1288 6.04383 14.7429 6.82353 14.7429ZM7.29412 13.3714C7.29412 13.6239 7.08343 13.8286 6.82353 13.8286C6.56363 13.8286 6.35294 13.6239 6.35294 13.3714C6.35294 13.1189 6.56363 12.9143 6.82353 12.9143C7.08343 12.9143 7.29412 13.1189 7.29412 13.3714ZM18.5882 13.3714C18.5882 14.1288 17.9562 14.7429 17.1765 14.7429C16.3968 14.7429 15.7647 14.1288 15.7647 13.3714C15.7647 12.614 16.3968 12 17.1765 12C17.9562 12 18.5882 12.614 18.5882 13.3714ZM17.1765 13.8286C17.4364 13.8286 17.6471 13.6239 17.6471 13.3714C17.6471 13.1189 17.4364 12.9143 17.1765 12.9143C16.9166 12.9143 16.7059 13.1189 16.7059 13.3714C16.7059 13.6239 16.9166 13.8286 17.1765 13.8286ZM10.8235 12.9143C10.4337 12.9143 10.1176 13.2213 10.1176 13.6C10.1176 13.9787 10.4337 14.2857 10.8235 14.2857H13.1765C13.5663 14.2857 13.8824 13.9787 13.8824 13.6C13.8824 13.2213 13.5663 12.9143 13.1765 12.9143H10.8235Z" fill="url(#paint0_linear_30_245)"/>
<defs>
<linearGradient id="paint0_linear_30_245" x1="30.8785" y1="20" x2="30.8785" y2="4" gradientUnits="userSpaceOnUse">
<stop stop-color="#FC8507"/>
<stop offset="1" stop-color="#FFA218"/>
</linearGradient>
</defs>
</svg>
