<svg width="24" height="24" viewBox="0 0 24 24" fill="none" xmlns="http://www.w3.org/2000/svg">
<path fill-rule="evenodd" clip-rule="evenodd" d="M15.8181 2.02257C16.2199 1.92211 16.6271 2.16643 16.7276 2.56828L17.2262 4.56259L19.2247 12.0569C19.3314 12.4572 19.0935 12.8681 18.6932 12.9749C18.293 13.0816 17.882 12.8437 17.7753 12.4434L15.9509 5.60203L13.6233 5.98997C13.2147 6.05807 12.8283 5.78205 12.7602 5.37348C12.6921 4.9649 12.9681 4.57848 13.3767 4.51038L15.5754 4.14394L15.2724 2.93208C15.1719 2.53023 15.4162 2.12303 15.8181 2.02257ZM3.28849 14.513C3.41947 14.12 3.84421 13.9077 4.23717 14.0387L6.94082 14.9399C7.27851 15.0524 7.57385 15.2653 7.78742 15.5501L8.875 17.0002H15.1893L15.9697 16.2198C16.2626 15.927 16.7374 15.927 17.0303 16.2198C17.3232 16.5127 17.3232 16.9876 17.0303 17.2805L16.1555 18.1553L15.4394 20.3036C15.2012 21.0182 14.5325 21.5002 13.7792 21.5002H10.618C9.95518 21.5002 9.34922 21.1257 9.05278 20.5328L7.85942 18.1461L6.58742 16.4501C6.55691 16.4094 6.51472 16.379 6.46648 16.3629L3.76283 15.4617C3.36987 15.3307 3.1575 14.906 3.28849 14.513ZM9.71352 18.5002L10.3944 19.862C10.4368 19.9467 10.5233 20.0002 10.618 20.0002H13.7792C13.8868 20.0002 13.9824 19.9313 14.0164 19.8292L14.4594 18.5002H9.71352ZM18.8529 14.0147C19.2591 13.9335 19.6542 14.1969 19.7354 14.6031L20.1658 16.7547C21.7455 16.8407 23 18.1489 23 19.7502C23 21.407 21.6569 22.7502 20 22.7502C18.3431 22.7502 17 21.407 17 19.7502C17 18.5611 17.6917 17.5337 18.6948 17.0482L18.2646 14.8973C18.1833 14.4911 18.4467 14.096 18.8529 14.0147ZM5.5 19.7502C5.5 20.5786 4.82843 21.2502 4 21.2502C3.17157 21.2502 2.5 20.5786 2.5 19.7502C2.5 18.9218 3.17157 18.2502 4 18.2502C4.82843 18.2502 5.5 18.9218 5.5 19.7502ZM7 19.7502C7 21.407 5.65685 22.7502 4 22.7502C2.34315 22.7502 1 21.407 1 19.7502C1 18.0933 2.34315 16.7502 4 16.7502C5.65685 16.7502 7 18.0933 7 19.7502ZM21.5 19.7502C21.5 20.5786 20.8284 21.2502 20 21.2502C19.1716 21.2502 18.5 20.5786 18.5 19.7502C18.5 18.9218 19.1716 18.2502 20 18.2502C20.8284 18.2502 21.5 18.9218 21.5 19.7502ZM21.7295 9.07609C21.6334 8.67319 21.2288 8.4245 20.8259 8.52064C20.423 8.61677 20.1743 9.02132 20.2705 9.42422L20.6172 10.8774C20.7133 11.2803 21.1179 11.529 21.5208 11.4329C21.9237 11.3368 22.1724 10.9322 22.0763 10.5293L21.7295 9.07609Z" fill="#FE9812"/>
</svg>
