<svg width="24" height="20" viewBox="0 0 24 20" fill="none" xmlns="http://www.w3.org/2000/svg">
<path d="M5.71875 16.4286C5.71875 16.8231 5.40399 17.1429 5.01562 17.1429C4.62726 17.1429 4.3125 16.8231 4.3125 16.4286C4.3125 16.034 4.62726 15.7143 5.01562 15.7143C5.40399 15.7143 5.71875 16.034 5.71875 16.4286Z" fill="url(#paint0_linear_30_349)"/>
<path d="M10.6406 14.2857H14.8594C15.2477 14.2857 15.5625 14.6055 15.5625 15C15.5625 15.3945 15.2477 15.7143 14.8594 15.7143H10.6406C10.2523 15.7143 9.9375 15.3945 9.9375 15C9.9375 14.6055 10.2523 14.2857 10.6406 14.2857Z" fill="url(#paint1_linear_30_349)"/>
<path d="M20.4844 17.1429C20.8727 17.1429 21.1875 16.8231 21.1875 16.4286C21.1875 16.034 20.8727 15.7143 20.4844 15.7143C20.096 15.7143 19.7812 16.034 19.7812 16.4286C19.7812 16.8231 20.096 17.1429 20.4844 17.1429Z" fill="url(#paint2_linear_30_349)"/>
<path fill-rule="evenodd" clip-rule="evenodd" d="M19.7278 12.9414C19.9717 12.8867 20.2245 12.8571 20.4844 12.8571C22.4229 12.8571 24 14.4593 24 16.4286C24 18.3979 22.4229 20 20.4844 20C19.3367 20 18.3159 19.4382 17.6737 18.5714H7.82629C7.18414 19.4382 6.16333 20 5.01562 20C3.07709 20 1.5 18.3979 1.5 16.4286C1.5 14.4593 3.07709 12.8571 5.01562 12.8571C5.25641 12.8571 5.49152 12.8821 5.71875 12.9291V10.8144L3.0791 1.42857H0.703125C0.314758 1.42857 0 1.10882 0 0.714286C0 0.319754 0.314758 0 0.703125 0H3.60938C3.92322 0 4.19916 0.21131 4.2854 0.518043L6.96826 10.0573L8.53125 10.2336V9.91202C8.53125 8.64695 9.60938 7.64844 10.8594 7.78069L15.0667 8.09728C15.0753 8.09803 15.0837 8.09877 15.0923 8.0997C16.162 8.22042 16.9688 9.13597 16.9688 10.2295V11.186L17.9048 11.2917C18.8134 11.3943 19.5317 12.0701 19.7278 12.9414ZM10.7183 9.20201C10.3052 9.15532 9.9375 9.48196 9.9375 9.91202V10.3925L15.5625 11.0273V10.2295C15.5625 9.86868 15.299 9.56585 14.9478 9.52083L10.7439 9.20461L10.7428 9.20452C10.7347 9.2038 10.7265 9.20308 10.7183 9.20201ZM2.90625 16.4286C2.90625 17.6101 3.85254 18.5714 5.01562 18.5714C6.17871 18.5714 7.125 17.6101 7.125 16.4286C7.125 15.247 6.17871 14.2857 5.01562 14.2857C3.85254 14.2857 2.90625 15.247 2.90625 16.4286ZM8.53125 16.4286C8.53125 16.6732 8.5069 16.912 8.46057 17.1429H17.0394C16.9931 16.912 16.9688 16.6732 16.9688 16.4286C16.9688 15.2626 17.5217 14.2254 18.3752 13.5733L18.375 13.5714V13.4215C18.375 13.0569 18.1062 12.7519 17.7495 12.7115L7.125 11.5123V13.5714L7.12482 13.5733C7.97827 14.2254 8.53125 15.2626 8.53125 16.4286ZM18.375 16.4286C18.375 17.6101 19.3213 18.5714 20.4844 18.5714C21.6475 18.5714 22.5938 17.6101 22.5938 16.4286C22.5938 15.247 21.6475 14.2857 20.4844 14.2857C19.3213 14.2857 18.375 15.247 18.375 16.4286Z" fill="url(#paint3_linear_30_349)"/>
<defs>
<linearGradient id="paint0_linear_30_349" x1="30.8785" y1="20" x2="30.8785" y2="1.33033e-07" gradientUnits="userSpaceOnUse">
<stop stop-color="#FC8507"/>
<stop offset="1" stop-color="#FFA218"/>
</linearGradient>
<linearGradient id="paint1_linear_30_349" x1="30.8785" y1="20" x2="30.8785" y2="1.33033e-07" gradientUnits="userSpaceOnUse">
<stop stop-color="#FC8507"/>
<stop offset="1" stop-color="#FFA218"/>
</linearGradient>
<linearGradient id="paint2_linear_30_349" x1="30.8785" y1="20" x2="30.8785" y2="1.33033e-07" gradientUnits="userSpaceOnUse">
<stop stop-color="#FC8507"/>
<stop offset="1" stop-color="#FFA218"/>
</linearGradient>
<linearGradient id="paint3_linear_30_349" x1="30.8785" y1="20" x2="30.8785" y2="1.33033e-07" gradientUnits="userSpaceOnUse">
<stop stop-color="#FC8507"/>
<stop offset="1" stop-color="#FFA218"/>
</linearGradient>
</defs>
</svg>
