<svg width="24" height="24" viewBox="0 0 24 24" fill="none" xmlns="http://www.w3.org/2000/svg">
<path fill-rule="evenodd" clip-rule="evenodd" d="M5.96688 3.73819C5.96688 3.3305 6.29988 3 6.71067 3H17.2883C17.6991 3 18.0321 3.3305 18.0321 3.73819V5.52264C18.0321 5.93033 17.6991 6.26083 17.2883 6.26083C16.8776 6.26083 16.5446 5.93033 16.5446 5.52264V4.47638H7.45446V5.52264C7.45446 5.93033 7.12145 6.26083 6.71067 6.26083C6.29988 6.26083 5.96688 5.93033 5.96688 5.52264V3.73819ZM5.71895 8.83957C4.41904 8.83957 3.48758 9.77664 3.48758 10.7884V14.7067C3.48758 15.7193 4.41886 16.6555 5.71895 16.6555H5.96688V14.5246C5.96688 14.1169 6.29988 13.7864 6.71067 13.7864H17.2893C17.7001 13.7864 18.0331 14.1169 18.0331 14.5246V16.6555H18.2811C19.581 16.6555 20.5124 15.7184 20.5124 14.7067V10.7884C20.5124 9.77582 19.5811 8.83957 18.2811 8.83957H5.71895ZM18.0331 18.1319H18.2811C20.2677 18.1319 22 16.6615 22 14.7067V10.7884C22 8.83245 20.2675 7.36319 18.2811 7.36319H5.71895C3.73229 7.36319 2 8.8336 2 10.7884V14.7067C2 16.6626 3.73248 18.1319 5.71895 18.1319H5.96688V20.2618C5.96688 20.6695 6.29988 21 6.71067 21H17.2893C17.7001 21 18.0331 20.6695 18.0331 20.2618V18.1319ZM16.5455 15.2628H7.45446V19.5236H16.5455V15.2628ZM6.06004 10.3998C6.40973 10.6138 6.51848 11.0685 6.30293 11.4156L6.30113 11.4185C6.08559 11.7655 5.62737 11.8735 5.27768 11.6595C4.92799 11.4456 4.81925 10.9908 5.0348 10.6438L5.03659 10.6409C5.25214 10.2938 5.71035 10.1859 6.06004 10.3998Z" fill="url(#paint0_linear_70_139)"/>
<defs>
<linearGradient id="paint0_linear_70_139" x1="27.7321" y1="21" x2="27.7321" y2="3" gradientUnits="userSpaceOnUse">
<stop stop-color="#FC8507"/>
<stop offset="1" stop-color="#FFA218"/>
</linearGradient>
</defs>
</svg>
