<svg width="25" height="24" viewBox="0 0 25 24" fill="none" xmlns="http://www.w3.org/2000/svg">
<path fill-rule="evenodd" clip-rule="evenodd" d="M0.977295 3H1.72729H14.259C15.1003 3 15.8534 3.37779 16.3578 3.97297H19.1562C20.3021 3.97297 21.281 4.68785 21.6713 5.69595H24.0043C24.5417 5.69595 24.9773 6.13156 24.9773 6.66892C24.9773 7.20628 24.5417 7.64189 24.0043 7.64189H21.6713C21.281 8.64998 20.3021 9.36487 19.1562 9.36487H16.8896C16.5457 10.4914 15.498 11.3108 14.259 11.3108H14.1019V12.4527C14.1019 13.9715 12.8707 15.2027 11.3519 15.2027H9.25804V20.2905V21.0405H8.50804H5.66414C4.14536 21.0405 2.91414 19.8093 2.91414 18.2905V11.1886C1.79232 10.8419 0.977295 9.79652 0.977295 8.56081V3.75V3ZM17.009 5.75V7.86487H19.1562C19.8167 7.86487 20.3522 7.32942 20.3522 6.66892C20.3522 6.00842 19.8167 5.47297 19.1562 5.47297H17.0083V5.68725C17.0088 5.70811 17.009 5.72903 17.009 5.75ZM14.259 4.5C14.9352 4.5 15.486 5.03692 15.5083 5.70768V8.60313C15.486 9.27389 14.9352 9.81081 14.259 9.81081H14.1019H13.3519H9.25804H8.50804H8.50804H7.75804H3.72729C3.03694 9.81081 2.47729 9.25117 2.47729 8.56081V4.5H14.259ZM9.25804 11.3108H12.6019V12.4527C12.6019 13.1431 12.0423 13.7027 11.3519 13.7027H9.25804V11.3108ZM4.41414 11.3108H7.75804V19.5405H5.66414C4.97378 19.5405 4.41414 18.9809 4.41414 18.2905V11.3108ZM13.5941 4.96622H10.6878V6.42568H13.5941V4.96622Z" fill="url(#paint0_linear_30_236)"/>
<defs>
<linearGradient id="paint0_linear_30_236" x1="31.8558" y1="21.0405" x2="31.8558" y2="3" gradientUnits="userSpaceOnUse">
<stop stop-color="#FC8507"/>
<stop offset="1" stop-color="#FFA218"/>
</linearGradient>
</defs>
</svg>
